<?xml version="1.0" encoding="UTF-8"?>
<svg width="80px" height="103px" viewBox="0 0 80 103" version="1.1" xmlns="http://www.w3.org/2000/svg" xmlns:xlink="http://www.w3.org/1999/xlink">
    <!-- Generator: Sketch 53.2 (72643) - https://sketchapp.com -->
    <title>Blomma</title>
    <desc>Created with Sketch.</desc>
    <g id="Blomma" stroke="none" stroke-width="1" fill="none" fill-rule="evenodd">
        <g id="005-flower-4" transform="translate(0.000000, -0.000000)" fill-rule="nonzero">
            <g id="Group" transform="translate(18.905473, 81.990050)" fill="#2FC8B4">
                <path d="M0.192835821,1.67721393 C0.497114428,5.5400995 3.32656716,9.52716418 7.799801,11.7705473 C12.2730348,14.0139303 17.160796,13.8969154 20.438408,11.8302488 C20.1341294,7.96736318 17.3046766,3.98029851 12.8314428,1.73691542 C8.35820896,-0.506467662 3.47064677,-0.389253731 0.192835821,1.67721393 Z" id="Path"></path>
                <path d="M41.9962189,1.67721393 C41.6919403,5.5400995 38.8624876,9.52716418 34.3892537,11.7705473 C29.9160199,14.0139303 25.0282587,13.8969154 21.7506468,11.8302488 C22.0549254,7.96736318 24.8843781,3.98029851 29.3576119,1.73691542 C33.8308458,-0.506467662 38.718408,-0.389253731 41.9962189,1.67721393 Z" id="Path"></path>
            </g>
            <rect id="Rectangle" fill="#00AE95" x="37.0626866" y="67.4467662" width="5.87562189" height="32.9512438"></rect>
            <path d="M72.2296517,46.079204 L72.2296517,46.079204 C82.3233831,40.7399005 79.6533333,25.59801 68.3422886,24.0328358 L68.3422886,24.0328358 L68.3422886,24.0328358 C72.6423881,13.4547264 60.8640796,3.57154229 51.1932338,9.64318408 L51.1932338,9.64318408 L51.1932338,9.64318408 C47.6877612,-1.22427861 32.3122388,-1.22427861 28.8067662,9.64318408 L28.8067662,9.64318408 L28.8067662,9.64318408 C19.1359204,3.57154229 7.35761194,13.4547264 11.6577114,24.0328358 L11.6577114,24.0328358 L11.6577114,24.0328358 C0.346666667,25.59801 -2.32318408,40.7399005 7.77034826,46.079204 L7.77034826,46.079204 L7.77034826,46.079204 C0.111641791,54.5486567 7.79940299,67.8642786 18.9635821,65.4664677 L18.9635821,65.4664677 L18.9635821,65.4664677 C18.5406965,76.8774129 32.9890547,82.1361194 40,73.1231841 L40,73.1231841 L40,73.1231841 C47.0109453,82.1363184 61.4591045,76.8776119 61.0364179,65.4664677 L61.0364179,65.4664677 L61.0364179,65.4664677 C72.200597,67.8644776 79.8883582,54.5488557 72.2296517,46.079204 L72.2296517,46.079204 Z" id="Path" fill="#FF5E6B"></path>
            <ellipse id="Oval" fill="#FFCE1C" cx="40" cy="39.5920398" rx="26.1751244" ry="23.4288557"></ellipse>
            <path d="M19.7954229,39.5914428 C19.7954229,27.5558209 29.9351244,17.641791 42.9850746,16.3154229 C42.0051741,16.2159204 41.0095522,16.1627861 40,16.1627861 C25.5440796,16.1627861 13.8252736,26.6521393 13.8252736,39.5914428 C13.8252736,52.5307463 25.5440796,63.0200995 40,63.0200995 C41.0095522,63.0200995 42.0051741,62.9671642 42.9850746,62.8674627 C29.9351244,61.5410945 19.7954229,51.6270647 19.7954229,39.5914428 Z" id="Path" fill="#FAA330"></path>
            <path d="M28.8555224,40.1243781 L28.8555224,37.8372139 C28.8555224,37.0129353 28.1872637,36.3446766 27.3629851,36.3446766 C26.5387065,36.3446766 25.8704478,37.0129353 25.8704478,37.8372139 L25.8704478,40.1243781 C25.8704478,40.9486567 26.5387065,41.6169154 27.3629851,41.6169154 C28.1872637,41.6169154 28.8555224,40.9488557 28.8555224,40.1243781 Z" id="Path" fill="#000000"></path>
            <path d="M54.1295522,40.1243781 L54.1295522,37.8372139 C54.1295522,37.0129353 53.4612935,36.3446766 52.6370149,36.3446766 C51.8127363,36.3446766 51.1444776,37.0129353 51.1444776,37.8372139 L51.1444776,40.1243781 C51.1444776,40.9486567 51.8127363,41.6169154 52.6370149,41.6169154 C53.4612935,41.6169154 54.1295522,40.9488557 54.1295522,40.1243781 Z" id="Path" fill="#000000"></path>
            <path d="M40,42.8378109 C41.6461692,42.8378109 43.1926368,42.1488557 44.2427861,40.9474627 C44.7852736,40.3269652 44.72199,39.3840796 44.1012935,38.841393 C43.480597,38.2987065 42.5379104,38.3621891 41.9952239,38.9828856 C41.5122388,39.5355224 40.7848756,39.8525373 40,39.8525373 C39.2151244,39.8525373 38.4879602,39.5355224 38.0047761,38.9828856 C37.4624876,38.3621891 36.519602,38.2989055 35.8987065,38.841393 C35.27801,39.3838806 35.2147264,40.3267662 35.7572139,40.9474627 C36.8073632,42.1488557 38.3536318,42.8378109 40,42.8378109 Z" id="Path" fill="#000000"></path>
            <path d="M10.0591045,36.7500498 L12.4551244,37.2451741 C12.3753234,38.0206965 12.3329353,38.8027861 12.3329353,39.5914428 C12.3329353,44.2099502 13.7367164,48.5383085 16.1777114,52.2509453 L13.7860697,53.6575124 C13.0756219,54.0754229 12.838408,54.9900498 13.2561194,55.7006965 C13.6561194,56.3808955 14.5852736,56.6505473 15.2993035,56.2306468 L17.9759204,54.6563184 C20.9643781,58.1926368 24.9765174,60.9900498 29.6111443,62.6875622 L28.7902488,65.3972139 C28.5512438,66.1860697 28.9970149,67.0193035 29.7858706,67.2585075 C30.5810945,67.4989055 31.3892537,67.0358209 31.6469652,66.2626866 L32.4620896,63.5723383 C34.8593035,64.1844776 37.3878607,64.5126368 40,64.5126368 C42.6121393,64.5126368 45.1406965,64.1846766 47.5381095,63.5723383 C47.5381095,63.5723383 48.3520398,66.2589055 48.3532338,66.2628856 C48.5886567,67.04 49.440398,67.4927363 50.2145274,67.2585075 C51.0033831,67.0195025 51.4491542,66.1860697 51.2101493,65.3972139 L50.3892537,62.6873632 C55.0238806,60.9898507 59.0360199,58.1924378 62.0244776,54.6561194 L64.7010945,56.2304478 C65.4035821,56.6433831 66.3307463,56.4035821 66.7442786,55.7004975 C67.1621891,54.9900498 66.9249751,54.0752239 66.2143284,53.6573134 L63.8226866,52.2507463 C66.2636816,48.5381095 67.6674627,44.2099502 67.6674627,39.5912438 C67.6674627,38.8 67.6244776,38.0179104 67.5438806,37.2451741 L69.9410945,36.7498507 C70.7484577,36.5830846 71.2676617,35.7934328 71.1006965,34.9860697 C70.9339303,34.1789055 70.1440796,33.6597015 69.3371144,33.8264677 L67.03801,34.3014925 C65.7651741,29.0185075 62.6278607,24.3550249 58.278806,20.9002985 L59.7369154,18.8368159 C60.2127363,18.1635821 60.0525373,17.2322388 59.3793035,16.7566169 C58.7060697,16.280995 57.7747264,16.440995 57.2991045,17.1142289 L55.8443781,19.1729353 C51.7353234,16.5779104 46.8113433,14.9621891 41.4927363,14.7062687 L41.4927363,11.4107463 C41.4927363,10.5864677 40.8244776,9.91820896 40.000199,9.91820896 C39.1759204,9.91820896 38.5076617,10.5864677 38.5076617,11.4107463 L38.5076617,14.7062687 C33.2871642,14.9556219 28.3377114,16.5100498 24.1450746,19.1574129 L22.7012935,17.1142289 C22.2254726,16.440995 21.2939303,16.280796 20.6210945,16.7566169 C19.9478607,17.2322388 19.7876617,18.1635821 20.2634826,18.8368159 L21.7112438,20.8857711 C20.5088557,21.8429851 19.3878607,22.9002985 18.3653731,24.0541294 C17.8187065,24.6710448 17.8756219,25.6143284 18.4925373,26.160995 C19.1094527,26.7076617 20.0527363,26.6507463 20.599403,26.0338308 C25.4634826,20.5452736 32.7271642,17.6549254 40,17.6549254 C53.6097512,17.6549254 64.6821891,27.4953234 64.6821891,39.5910448 C64.6821891,51.6867662 53.6097512,61.5275622 40,61.5275622 C26.3902488,61.5275622 15.31801,51.6871642 15.31801,39.5914428 C15.31801,36.4473632 16.0515423,33.4115423 17.4981095,30.5685572 C17.8720398,29.8338308 17.5795025,28.9351244 16.8447761,28.561393 C16.1098507,28.1876617 15.2115423,28.480199 14.8376119,29.2147264 C14.00199,30.8571144 13.3737313,32.5564179 12.9552239,34.3002985 L10.6630846,33.8266667 C9.85631841,33.6600995 9.06626866,34.1791045 8.89930348,34.9862687 C8.73273632,35.7936318 9.25174129,36.5832836 10.0591045,36.7500498 Z" id="Path" fill="#000000"></path>
            <path d="M5.55721393,46.4702488 C2.93572139,50.2457711 2.45492537,55.0155224 4.35522388,59.2963184 C6.60597015,64.3663682 11.9621891,67.6768159 17.51801,67.1916418 C17.7862687,70.1759204 19.0149254,72.9164179 21.0666667,75.0455721 C23.600398,77.6748259 27.1625871,79.1828856 30.84,79.1828856 C32.5006965,79.1828856 34.0915423,78.8778109 35.5697512,78.2971144 L35.5697512,84.4358209 C34.6073632,83.6525373 33.5450746,82.9641791 32.4061692,82.3932338 C30.0521393,81.2127363 27.4957214,80.5886567 25.0131343,80.5886567 C22.5076617,80.5886567 20.1872637,81.2167164 18.3024876,82.4049751 C17.8334328,82.7006965 17.5669652,83.2318408 17.6105473,83.7846766 C17.9687562,88.3343284 21.1972139,92.6680597 26.0362189,95.0949254 C28.3892537,96.2748259 30.9448756,96.8987065 33.4272637,96.8987065 C34.15801,96.8987065 34.8736318,96.8445771 35.5697512,96.7385075 L35.5697512,100.398209 C35.5697512,101.222488 36.23801,101.890746 37.0622886,101.890746 L42.9379104,101.890746 C43.7621891,101.890746 44.4304478,101.222488 44.4304478,100.398209 L44.4304478,96.7385075 C45.1265672,96.8445771 45.8421891,96.8987065 46.5733333,96.8987065 C49.0551244,96.8987065 51.6107463,96.2750249 53.9639801,95.0949254 C58.8027861,92.6682587 62.0314428,88.3343284 62.3898507,83.7846766 C62.4334328,83.2320398 62.1669652,82.7006965 61.6979104,82.4049751 C59.8131343,81.2167164 57.4927363,80.5886567 54.9872637,80.5886567 C52.5046766,80.5886567 49.9482587,81.2127363 47.5940299,82.3932338 C46.4551244,82.9643781 45.3928358,83.6527363 44.4306468,84.4358209 L44.4306468,78.2973134 C45.9088557,78.87801 47.4995025,79.1830846 49.160398,79.1830846 C52.83801,79.1830846 56.400398,77.6752239 58.9339303,75.0461692 C60.9856716,72.9172139 62.2141294,70.1763184 62.4823881,67.1918408 C68.0722388,67.680199 73.3802985,64.398209 75.6451741,59.2979104 C77.5458706,55.0169154 77.0648756,50.2465672 74.4429851,46.4704478 C78.6232836,43.5255721 80.6963184,38.5631841 79.7828856,33.3818905 C78.8694527,28.201194 75.2250746,24.2475622 70.2905473,22.9092537 C71.2658706,19.2435821 70.6523383,15.4545274 68.5231841,12.2905473 C66.0344279,8.59243781 61.7902488,6.29512438 57.4465672,6.29512438 C55.5476617,6.29512438 53.7090547,6.70845771 51.960199,7.52656716 C49.7848756,2.90149254 45.2591045,0 40,0 C34.7408955,0 30.2151244,2.90149254 28.039801,7.52636816 C26.2911443,6.70825871 24.4525373,6.29492537 22.5536318,6.29492537 C18.2097512,6.29492537 13.9653731,8.5920398 11.4766169,12.2899502 C9.34726368,15.4541294 8.73393035,19.2427861 9.70945274,22.9090547 C4.77512438,24.2471642 1.13074627,28.200796 0.217313433,33.3814925 C-0.696119403,38.5627861 1.37691542,43.5253731 5.55721393,46.4702488 Z M33.4272637,93.9134328 L33.4270647,93.9134328 C31.4073632,93.9134328 29.3142289,93.399204 27.3745274,92.4264677 C23.8680597,90.6678607 21.3452736,87.6218905 20.7162189,84.478607 C21.9661692,83.8843781 23.4330348,83.5735323 25.0131343,83.5735323 C27.0334328,83.5735323 29.1273632,84.0879602 31.0680597,85.0612935 C32.8459701,85.9528358 34.3930348,87.1791045 35.5697512,88.6252736 L35.5697512,90.2579104 L27.7950249,86.359005 C27.0581095,85.9896517 26.161393,86.2873632 25.7918408,87.0240796 C25.4222886,87.760995 25.72,88.6577114 26.4569154,89.0272637 L35.5697512,93.5972139 L35.5697512,93.7092537 C34.8843781,93.8449751 34.1675622,93.9134328 33.4272637,93.9134328 Z M48.9319403,85.0612935 C50.8728358,84.0879602 52.9665672,83.5735323 54.9870647,83.5735323 C56.5671642,83.5735323 58.0340299,83.8843781 59.2839801,84.478607 C58.6547264,87.6220896 56.1321393,90.6680597 52.6256716,92.4264677 C50.6855721,93.399403 48.5926368,93.9134328 46.5729353,93.9134328 C45.8324378,93.9134328 45.1154229,93.8449751 44.4302488,93.7094527 L44.4302488,93.5974129 L53.5430846,89.0274627 C54.28,88.6579104 54.5777114,87.760995 54.2081592,87.0242786 C53.838806,86.2873632 52.9420896,85.9896517 52.2049751,86.359204 L44.4302488,90.2581095 L44.4302488,88.6254726 C45.6069652,87.1791045 47.1540299,85.9528358 48.9319403,85.0612935 Z M41.4451741,98.9054726 L38.5546269,98.9054726 L38.5546269,76.6312438 C39.0252736,76.278209 39.4726368,75.8899502 39.8929353,75.478408 C39.9281592,75.4437811 39.9649751,75.4113433 40,75.3763184 C40.0344279,75.4107463 40.0706468,75.4427861 40.1054726,75.4768159 C40.5265672,75.8881592 40.9743284,76.2776119 41.4451741,76.6312438 L41.4451741,98.9054726 Z M3.15721393,33.8999005 C3.78487562,30.3400995 6.40139303,26.2670647 11.8620896,25.5112438 C12.8119403,25.3797015 13.4021891,24.360796 13.040398,23.4706468 C11.7072637,20.1910448 12.0314428,16.8123383 13.9532338,13.9564179 C15.8945274,11.0718408 19.1900498,9.279801 22.5536318,9.279801 C24.4563184,9.279801 26.2931343,9.82726368 28.0129353,10.9070647 C28.8270647,11.4181095 29.9335323,11.0119403 30.2272637,10.1012935 C31.919602,4.85452736 36.3852736,2.98507463 40,2.98507463 C43.6147264,2.98507463 48.080199,4.85452736 49.7727363,10.1010945 C50.0682587,11.0171144 51.1715423,11.4191045 51.9868657,10.9072637 C53.7068657,9.82746269 55.5436816,9.28 57.4463682,9.28 C60.8095522,9.28 64.1048756,11.0720398 66.0463682,13.9568159 C67.9681592,16.8127363 68.2925373,20.1912438 66.959801,23.4704478 C66.5958209,24.3661692 67.1852736,25.3795025 68.1377114,25.5112438 C73.598607,26.2668657 76.2151244,30.3399005 76.8427861,33.8997015 C77.4704478,37.4595025 76.4049751,42.1816915 71.5321393,44.759602 C70.679403,45.2107463 70.4770149,46.3663682 71.1225871,47.080199 C73.9283582,50.1828856 74.599005,54.2973134 72.9166169,58.0861692 C70.9367164,62.5454726 66.120995,65.0314428 61.3498507,64.0071642 C60.4103483,63.8053731 59.5092537,64.5631841 59.5448756,65.521592 C59.680199,69.1729353 58.118209,71.5896517 56.7840796,72.9741294 C54.8101493,75.0224876 52.0312438,76.1974129 49.16,76.1974129 C47.000199,76.1974129 44.9870647,75.5289552 43.2893532,74.2770149 C43.2835821,74.2728358 43.2778109,74.2684577 43.2722388,74.2640796 C42.4847761,73.6768159 41.7810945,72.9816915 41.1781095,72.2065672 C40.6035821,71.4680597 39.4171144,71.441194 38.8218905,72.2065672 C38.2185075,72.9824876 37.5134328,73.6750249 36.7271642,74.2646766 C36.721791,74.2688557 36.7164179,74.2728358 36.7110448,74.2768159 C35.0131343,75.5289552 33,76.1974129 30.84,76.1974129 C27.9689552,76.1974129 25.1902488,75.0224876 23.2161194,72.9739303 C21.881791,71.5892537 20.319801,69.1725373 20.4549254,65.521791 C20.4903483,64.5623881 19.5884577,63.8053731 18.6499502,64.0071642 C13.839005,65.040199 9.07661692,62.5743284 7.08358209,58.0847761 C5.40159204,54.2961194 6.07223881,50.1822886 8.87721393,47.080199 C9.52358209,46.3653731 9.31721393,45.2087562 8.46825871,44.759801 C3.59502488,42.1820896 2.52935323,37.4597015 3.15721393,33.8999005 Z" id="Shape" fill="#000000"></path>
        </g>
    </g>
</svg>